<?xml version="1.0" standalone="no"?>
<!DOCTYPE svg PUBLIC "-//W3C//DTD SVG 20010904//EN"
 "http://www.w3.org/TR/2001/REC-SVG-20010904/DTD/svg10.dtd">
<svg version="1.0" xmlns="http://www.w3.org/2000/svg"
 width="1024.000000pt" height="1024.000000pt" viewBox="0 0 1024.000000 1024.000000"
 preserveAspectRatio="xMidYMid meet">

<g transform="translate(0.000000,1024.000000) scale(0.100000,-0.100000)"
fill="#000000" stroke="none">
<path d="M5025 8414 c-295 -28 -391 -44 -608 -100 -475 -122 -925 -342 -1312
-643 -122 -94 -448 -414 -542 -531 -389 -485 -638 -1037 -732 -1620 -41 -259
-45 -315 -46 -590 0 -363 26 -574 115 -930 117 -465 324 -878 649 -1295 108
-138 393 -426 530 -534 191 -151 381 -271 623 -392 264 -132 504 -218 793
-283 255 -57 443 -78 710 -79 401 -2 737 52 1120 178 372 124 757 335 1080
592 490 390 894 972 1089 1571 101 311 169 661 185 962 34 639 -94 1243 -383
1805 -138 268 -275 472 -467 695 -407 473 -935 822 -1559 1030 -346 115 -603
159 -975 164 -126 2 -248 2 -270 0z m595 -349 c531 -83 1066 -307 1479 -617
106 -80 301 -250 377 -330 136 -141 341 -409 425 -555 l30 -52 -64 -68 c-35
-37 -112 -124 -172 -193 -113 -130 -211 -240 -380 -425 -56 -60 -116 -128
-135 -151 -55 -64 -242 -274 -400 -449 -80 -88 -255 -284 -389 -435 -134 -151
-250 -282 -257 -290 -12 -12 -26 -1 -100 78 -47 50 -115 111 -150 134 -43 29
-63 48 -60 58 2 8 18 47 34 86 97 231 53 488 -117 692 -202 240 -523 306 -811
165 -56 -27 -96 -58 -161 -122 -73 -73 -93 -100 -132 -181 -47 -97 -77 -213
-77 -292 1 -84 29 -220 61 -289 18 -38 30 -71 28 -73 -2 -1 -31 -21 -64 -43
-57 -39 -158 -135 -206 -196 -11 -15 -25 -27 -29 -25 -5 2 -32 30 -61 63 -28
33 -89 101 -134 150 -45 50 -97 108 -116 130 -48 55 -197 223 -284 320 -40 44
-188 211 -331 370 -142 160 -401 448 -575 641 l-317 351 99 147 c395 589 953
1025 1600 1251 199 69 516 143 705 165 126 14 562 5 684 -15z m-2996 -2154
c110 -124 241 -270 290 -325 49 -56 128 -144 176 -196 47 -52 128 -144 180
-205 51 -60 96 -112 99 -115 4 -3 62 -68 131 -145 69 -77 163 -180 210 -230
47 -49 157 -171 244 -270 88 -99 171 -193 185 -208 l26 -28 -34 -65 c-18 -35
-99 -173 -178 -307 -80 -133 -156 -263 -168 -288 -20 -38 -31 -47 -67 -58 -77
-23 -177 -83 -245 -146 l-67 -61 -60 70 c-34 39 -70 82 -81 95 -11 14 -40 48
-65 76 -88 101 -106 121 -198 230 -87 102 -192 226 -210 250 -4 6 -108 127
-230 270 -225 262 -311 348 -382 380 -21 10 -41 24 -44 32 -11 27 -14 357 -5
493 11 174 24 271 61 455 28 141 109 409 157 519 l22 49 26 -24 c14 -13 116
-125 227 -248z m5514 162 c72 -188 122 -369 157 -568 35 -200 56 -625 39 -792
-6 -59 -7 -59 -58 -88 -28 -16 -66 -40 -84 -54 -30 -23 -247 -273 -493 -567
-48 -57 -127 -150 -177 -206 -49 -57 -118 -137 -154 -178 -35 -41 -107 -124
-159 -185 -52 -60 -106 -125 -120 -144 l-26 -33 -68 67 c-52 52 -87 77 -160
111 -51 24 -97 44 -103 44 -6 0 -34 39 -63 88 -28 48 -82 137 -119 197 -116
189 -240 404 -240 415 0 6 53 70 117 143 206 233 534 597 668 742 72 78 191
210 265 295 74 84 191 217 260 294 125 140 230 259 383 434 45 50 84 92 88 92
3 0 25 -48 47 -107z m-2756 -645 c163 -75 247 -248 204 -418 -53 -208 -253
-323 -452 -262 -266 82 -350 397 -160 600 44 47 111 88 170 103 61 16 178 4
238 -23z m-351 -994 c57 -18 117 -28 185 -31 92 -5 111 -3 211 26 128 36 191
39 267 11 99 -38 132 -78 308 -374 198 -333 306 -516 342 -578 l27 -48 -58
-26 c-177 -81 -418 -183 -422 -178 -3 2 -8 75 -11 162 -7 167 -12 189 -56 241
-48 58 -118 75 -185 47 -42 -18 -63 -40 -84 -89 -21 -51 -19 -84 10 -142 21
-43 24 -64 25 -152 0 -71 5 -115 16 -143 9 -23 14 -43 12 -45 -3 -3 -81 -39
-174 -82 -107 -48 -182 -76 -204 -76 -22 0 -101 29 -209 76 -96 42 -175 78
-177 80 -2 1 3 21 11 42 9 25 14 83 15 150 1 99 3 114 25 150 83 135 -61 298
-201 227 -89 -45 -104 -87 -104 -287 0 -116 -3 -157 -13 -160 -19 -8 -483 203
-479 217 2 7 79 139 171 293 92 154 208 348 257 430 49 83 109 171 135 196 88
90 206 110 360 63z m-1059 -1304 c66 -20 167 -63 663 -280 339 -148 583 -250
601 -250 17 0 255 98 469 192 94 42 289 129 435 193 322 143 380 165 447 165
197 1 339 -192 289 -391 -43 -167 -185 -296 -360 -328 -41 -8 -453 -11 -1302
-11 l-1243 0 -78 25 c-190 60 -304 205 -307 390 -1 71 3 88 31 145 40 82 87
128 155 151 69 24 121 24 200 -1z"/>
<path d="M5122 7529 c-145 -22 -266 -86 -382 -200 -123 -123 -186 -268 -197
-454 -23 -407 292 -746 694 -745 257 1 504 156 624 392 96 190 97 433 4 623
-88 178 -264 323 -449 370 -77 19 -216 26 -294 14z m281 -352 c116 -57 200
-176 213 -304 16 -154 -75 -316 -216 -382 -49 -23 -68 -26 -165 -26 -98 0
-116 3 -167 27 -105 49 -199 177 -213 292 -21 164 90 351 242 405 88 31 228
26 306 -12z"/>
</g>
</svg>
